# Blender v3.5.0 OBJ File: ''
# www.blender.org
mtllib boxes.mtl
o Cube.001
v 0.055000 -0.355000 0.520000
v 0.055000 -0.245000 0.520000
v -0.055000 -0.245000 0.520000
v -0.055000 -0.355000 0.520000
v -0.055000 -0.355000 -0.520000
v -0.055000 -0.245000 -0.520000
v 0.055000 -0.245000 -0.520000
v 0.055000 -0.355000 -0.520000
vt 0.625000 0.500000
vt 0.875000 0.500000
vt 0.875000 0.750000
vt 0.625000 0.750000
vt 0.375000 0.750000
vt 0.625000 1.000000
vt 0.375000 1.000000
vt 0.375000 0.000000
vt 0.625000 0.000000
vt 0.625000 0.250000
vt 0.375000 0.250000
vt 0.125000 0.500000
vt 0.375000 0.500000
vt 0.125000 0.750000
vn 0.5774 -0.5774 0.5774
vn 0.5774 0.5774 0.5774
vn -0.5774 0.5774 0.5774
vn -0.5774 -0.5774 0.5774
vn -0.5774 -0.5774 -0.5774
vn -0.5774 0.5774 -0.5774
vn 0.5774 0.5774 -0.5774
vn 0.5774 -0.5774 -0.5774
usemtl Material.005
s 1
f 1/1/1 2/2/2 3/3/3 4/4/4
f 5/5/5 4/4/4 3/6/3 6/7/6
f 6/8/6 3/9/3 2/10/2 7/11/7
f 7/12/7 8/13/8 5/5/5 6/14/6
f 8/13/8 1/1/1 4/4/4 5/5/5
f 7/11/7 2/10/2 1/1/1 8/13/8
o Cube.002
v 0.355000 -0.055000 0.520000
v 0.355000 0.055000 0.520000
v 0.245000 0.055000 0.520000
v 0.245000 -0.055000 0.520000
v 0.245000 -0.055000 -0.520000
v 0.245000 0.055000 -0.520000
v 0.355000 0.055000 -0.520000
v 0.355000 -0.055000 -0.520000
vt 0.625000 0.500000
vt 0.875000 0.500000
vt 0.875000 0.750000
vt 0.625000 0.750000
vt 0.375000 0.750000
vt 0.625000 1.000000
vt 0.375000 1.000000
vt 0.375000 0.000000
vt 0.625000 0.000000
vt 0.625000 0.250000
vt 0.375000 0.250000
vt 0.125000 0.500000
vt 0.375000 0.500000
vt 0.125000 0.750000
vn 0.5774 -0.5774 0.5774
vn 0.5774 0.5774 0.5774
vn -0.5774 0.5774 0.5774
vn -0.5774 -0.5774 0.5774
vn -0.5774 -0.5774 -0.5774
vn -0.5774 0.5774 -0.5774
vn 0.5774 0.5774 -0.5774
vn 0.5774 -0.5774 -0.5774
usemtl Material.005
s 1
f 9/15/9 10/16/10 11/17/11 12/18/12
f 13/19/13 12/18/12 11/20/11 14/21/14
f 14/22/14 11/23/11 10/24/10 15/25/15
f 15/26/15 16/27/16 13/19/13 14/28/14
f 16/27/16 9/15/9 12/18/12 13/19/13
f 15/25/15 10/24/10 9/15/9 16/27/16
o Cube.003
v -0.245000 -0.055000 0.520000
v -0.245000 0.055000 0.520000
v -0.355000 0.055000 0.520000
v -0.355000 -0.055000 0.520000
v -0.355000 -0.055000 -0.520000
v -0.355000 0.055000 -0.520000
v -0.245000 0.055000 -0.520000
v -0.245000 -0.055000 -0.520000
vt 0.625000 0.500000
vt 0.875000 0.500000
vt 0.875000 0.750000
vt 0.625000 0.750000
vt 0.375000 0.750000
vt 0.625000 1.000000
vt 0.375000 1.000000
vt 0.375000 0.000000
vt 0.625000 0.000000
vt 0.625000 0.250000
vt 0.375000 0.250000
vt 0.125000 0.500000
vt 0.375000 0.500000
vt 0.125000 0.750000
vn 0.5774 -0.5774 0.5774
vn 0.5774 0.5774 0.5774
vn -0.5774 0.5774 0.5774
vn -0.5774 -0.5774 0.5774
vn -0.5774 -0.5774 -0.5774
vn -0.5774 0.5774 -0.5774
vn 0.5774 0.5774 -0.5774
vn 0.5774 -0.5774 -0.5774
usemtl (null)
s 1
f 17/29/17 18/30/18 19/31/19 20/32/20
f 21/33/21 20/32/20 19/34/19 22/35/22
f 22/36/22 19/37/19 18/38/18 23/39/23
f 23/40/23 24/41/24 21/33/21 22/42/22
f 24/41/24 17/29/17 20/32/20 21/33/21
f 23/39/23 18/38/18 17/29/17 24/41/24
